<?xml version="1.0" encoding="utf-8"?>
<!-- Generator: Adobe Illustrator 16.0.0, SVG Export Plug-In . SVG Version: 6.00 Build 0)  -->
<!DOCTYPE svg PUBLIC "-//W3C//DTD SVG 1.1//EN" "http://www.w3.org/Graphics/SVG/1.1/DTD/svg11.dtd">
<!-- <svg version="1.1" id="Layer_1" xmlns="http://www.w3.org/2000/svg" xmlns:xlink="http://www.w3.org/1999/xlink" x="0px" y="0px"
	 width="57.91px" height="62.678px" viewBox="0 0 57.91 62.678" enable-background="new 0 0 57.91 62.678" xml:space="preserve"> -->
<svg version="1.1" id="Layer_1" xmlns="http://www.w3.org/2000/svg" xmlns:xlink="http://www.w3.org/1999/xlink" x="0px" y="0px"
	 width="50px" height="50px" viewBox="0 0 57.91 62.678" enable-background="new 0 0 57.91 62.678" xml:space="preserve">
<g>
	<path d="M15.284,2.208v7.25h-0.65c-0.211-1.391-0.589-2.499-1.134-3.323s-1.321-1.479-2.329-1.963S9.12,3.445,8.042,3.445
		c-1.219,0-2.227,0.327-3.023,0.981S3.823,5.825,3.823,6.66c0,0.639,0.252,1.221,0.756,1.747c0.727,0.773,2.455,1.803,5.186,3.091
		c2.227,1.051,3.747,1.857,4.562,2.419c0.814,0.562,1.441,1.224,1.881,1.986s0.659,1.561,0.659,2.396c0,1.587-0.7,2.955-2.101,4.104
		s-3.202,1.723-5.405,1.723c-0.691,0-1.342-0.046-1.951-0.139c-0.363-0.051-1.116-0.239-2.259-0.564s-1.866-0.487-2.171-0.487
		c-0.293,0-0.524,0.077-0.694,0.232c-0.17,0.154-0.296,0.474-0.378,0.958h-0.65v-7.187h0.65c0.305,1.504,0.715,2.63,1.23,3.377
		c0.516,0.748,1.304,1.368,2.364,1.863s2.224,0.742,3.489,0.742c1.465,0,2.622-0.34,3.472-1.02s1.274-1.484,1.274-2.411
		c0-0.515-0.161-1.036-0.483-1.561c-0.322-0.526-0.823-1.015-1.503-1.469c-0.457-0.309-1.705-0.966-3.744-1.971
		c-2.039-1.004-3.489-1.806-4.351-2.403s-1.515-1.257-1.96-1.979c-0.445-0.721-0.668-1.515-0.668-2.38
		c0-1.504,0.656-2.8,1.969-3.887c1.313-1.087,2.982-1.631,5.01-1.631c1.266,0,2.607,0.273,4.025,0.819
		c0.656,0.258,1.119,0.387,1.389,0.387c0.305,0,0.554-0.08,0.747-0.24s0.349-0.481,0.466-0.966H15.284z"/>
	<path d="M56.452,40.194l0.545,7.125h-0.545c-0.727-2.133-1.764-3.668-3.111-4.606c-1.348-0.938-2.965-1.406-4.852-1.406
		c-1.582,0-3.012,0.353-4.289,1.059c-1.277,0.706-2.282,1.832-3.015,3.377c-0.732,1.545-1.099,3.467-1.099,5.765
		c0,1.896,0.346,3.54,1.037,4.931s1.731,2.458,3.12,3.2c1.389,0.742,2.974,1.113,4.755,1.113c1.547,0,2.912-0.291,4.096-0.874
		c1.184-0.582,2.484-1.739,3.902-3.47l0.545,0.309c-1.195,1.865-2.59,3.23-4.184,4.096c-1.594,0.866-3.486,1.298-5.678,1.298
		c-3.949,0-7.008-1.288-9.176-3.864c-1.617-1.917-2.426-4.173-2.426-6.77c0-2.092,0.533-4.014,1.6-5.766
		c1.066-1.751,2.534-3.109,4.403-4.073c1.869-0.963,3.911-1.445,6.126-1.445c1.723,0,3.422,0.371,5.098,1.113
		c0.492,0.227,0.844,0.34,1.055,0.34c0.316,0,0.592-0.098,0.826-0.293c0.305-0.278,0.521-0.665,0.65-1.16H56.452z"/>
</g>
<line fill="none" stroke="#231F20" stroke-miterlimit="10" x1="0.368" y1="62.339" x2="57.542" y2="0.339"/>
</svg>
